<svg width="73" height="40" fill="none" xmlns="http://www.w3.org/2000/svg"><path fill-rule="evenodd" clip-rule="evenodd" d="M25.143 30.24c-.268-1.24-1.355-3.054-1.826-4.728-.55-1.958-.742-3.829-.687-5.963l.285-2.376.175-1.041.642-1.85c.017-.103.097-.108.146-.163.004-.997.398-1.867.954-2.553l.249-.534.073-.47h-3.837c-.287 3.456-1.093 7.244-1.093 10.933-.79-.58-.309.367-.843-2.435-.343-1.798-1.333-7.336-1.89-8.497h-6.286c-.368.767-2.186 9.942-2.186 11.205h-.274c0-2.945-.584-6.001-.859-8.978-.214-2.307-.082-2.28-2.684-2.236-1.73.03-3.471.009-5.202.009l4.035 22.474c.317 1.345.26 1.049 3.343 1.031 1.549-.01 3.1-.002 4.648-.002.012-.589 1.76-8.78 2.37-10.202.018-.04.053-.125.09-.183.138 1.67 2.146 8.628 2.185 10.385 2.015 0 4.024.004 6.037.023 1.308.014 2.044.86 2.435-3.849zm38.81.82c-.63-1.12-.273-14.831-.273-17.217.876.019 1.366-.09 1.366.82v15.304c0 .856-.489.915-1.093 1.093zM56.3 7.557c.497 1.363 1.837 2.221 3.225 5.515 4.628 10.976-2.789 18.944-3.224 20.175v.82h7.379c.44-1.332.784.475 3.82.475 1.593 0 3.138-.318 3.967-1.433 1.437-1.932.684-7.246.684-10.248 0-4.464 1.098-10.567-1.524-12.14-.697-.418-1.252-.44-2.29-.45-3.49-.034-2.818.41-4.658.838V5.096h-7.38v2.46h.002z" fill="#000"/><path fill-rule="evenodd" clip-rule="evenodd" d="M41.633 1c10.494 0 19.001 8.507 19.001 19s-8.507 19-19 19c-10.494 0-19-8.507-19-19s8.506-19 19-19v0z" fill="url(#paint0_radial)" stroke="#0086D1" stroke-width=".353" stroke-miterlimit="22.926" stroke-linecap="round" stroke-linejoin="round"/><path d="M52.308 22.573a.1.1 0 00-.096-.128l-3.87-.034-.001.1-.094-.035c-.64 1.67-1.562 2.767-2.65 3.525-1.084.753-2.397 1.135-3.943 1.135-1.039 0-1.904-.142-2.68-.45-.777-.309-1.47-.785-2.164-1.458h0c-.703-.681-1.31-1.324-1.765-2.113-.44-.764-.738-1.671-.828-2.888h18.342a.1.1 0 00.1-.097c.016-.467.024-.823.024-1.058 0-3.889-1.077-6.593-3.226-8.746C47.31 8.175 44.862 7.1 41.477 7.1c-1.748 0-3.175.274-4.441.824-1.266.55-2.366 1.375-3.46 2.469h0c-2.197 2.193-3.292 4.957-3.292 8.912 0 6.044 5.046 11.738 11.766 11.738 2.952 0 4.94-1.08 6.603-2.689h0c1.712-1.655 2.96-3.372 3.655-5.782zM41.5 10.556c3.88 0 7.03 2.659 7.423 6.215H34.14c.307-3.398 3.7-6.215 7.362-6.215z" fill="url(#paint1_linear)" stroke="#fff" stroke-width=".2" stroke-miterlimit="22.926" stroke-linejoin="round"/><defs><radialGradient id="paint0_radial" cx="0" cy="0" r="1" gradientUnits="userSpaceOnUse" gradientTransform="matrix(42.47607 40.30575 -171.58046 180.81946 41.236 19.603)"><stop offset=".173" stop-color="#0189D2"/><stop offset=".376" stop-color="#C4C4C4" stop-opacity="0"/></radialGradient><linearGradient id="paint1_linear" x1="41.484" y1="7.201" x2="41.484" y2="30.944" gradientUnits="userSpaceOnUse"><stop stop-color="#B7B7B7"/><stop offset=".5" stop-color="#F5F5F5"/><stop offset="1" stop-color="#C4C4C4"/></linearGradient></defs></svg>