<?xml version="1.0" encoding="utf-8"?><svg viewBox="0 0 531 124" xmlns="http://www.w3.org/2000/svg" xmlns:xlink="http://www.w3.org/1999/xlink"><style>:root>svg{display:none}:root>svg:target{display:block}</style><svg fill="none" viewBox="0 0 531 124" id="logo" xmlns="http://www.w3.org/2000/svg"><path fill-rule="evenodd" clip-rule="evenodd" d="M493.93 46.048v42.746c0 5.952 1.981 8.561 6.399 9.965 5.012 1.591 11.173-.95 13.716-1.163 0 9.577 1.154 9.962-3.142 10.056 0-5.702 1.78-4.399-15.716-4.399 0 11.696 7.231 12.526 16.723 12.572h3.394c8.314 0 15.088-3.058 15.088-11.317v-60.35h-16.344v44.63c0 1.91-1.09 2.136-2.514 2.517-1.502-3.135-.636-34.708-.574-42.803.041-5.557 1.185-4.346-15.142-4.346-1.446 0-1.885.436-1.885 1.885l-.003.007zm-25.775-1.885h-16.344v54.063h16.344V54.221c0-1.607 2.803-4.7 3.198.533.199 2.649-.054 6.708-.054 9.526h16.974c0-17.402 1.526-20.748-10.687-20.748-2.521 0-3.891.331-5.864 1.11-2.762 1.09-3.294 2.633-3.564-.48h-.003zm-45.261 0h-5.658v8.171h5.658v36.46c0 4.506 1.077 6.678 4.013 8.561 4.114 2.641 14.437 2.128 19.874 2.128v-9.43c-2.118 0-6.914.27-6.914-3.144V52.332h6.914V44.16h-6.914V31.588h-16.973v12.575zm-30.174 1.885v-1.885h-16.345v54.063h16.345V54.221c0-1.75 1.664-3.225 2.715-1.575 1.05 1.65.427 42.63.427 45.58h15.085c1.449 0 1.886-.436 1.886-1.885V53.593c0-10.564-5.184-10.059-10.685-10.059-3.699 0-7.02 1.24-9.43 2.516l.002-.002zm-60.349 45.261c0 8.564 8.141 8.741 14.837 7.28 4.809-1.045 1.431-1.632 5.523-.647.15.037.317.095.479.127l15.62.153V46.046c0-3.238-6.207-1.886-15.085-1.886-2.973 0-1.888 4.883-1.885 10.06 0 7.333.854 33.368-.629 36.459-2.275-.248-2.516-.73-2.516-3.142V44.16h-16.344V91.31zm-27.032-1.885V51.706h2.516v37.718c0 1.77-.273 1.164-1.259 1.885-1.058-.736-1.257-.088-1.257-1.885zm-16.973-36.462v37.72c0 8.703 11.676 8.801 17.601 8.801 9.514 0 18.858-.523 18.858-10.059V53.591c0-12.555-15.142-10.059-26.403-10.059-3.304 0-4.973 1.114-6.865 2.565-2.136 1.637-3.191 3.184-3.191 6.865zm-44.005-.628v37.719c0 9.693 9.803 9.43 18.23 9.43 20.716 0 18.232-3.203 18.232-21.376-22.285 0-16.17-1.814-16.917 10.117-.201 3.223.538 1.728-1.315 3.085-1.061-.736-1.257-.088-1.257-1.885V51.706h2.513c0 14.94-3.271 11.943 15.088 11.943 3.051 0 1.886-4.575 1.886-12.572 0-10.157-16.804-7.545-27.661-7.545-5.5 0-8.802 3.304-8.802 8.802h.003z" fill="#0086D1"/><path fill-rule="evenodd" clip-rule="evenodd" d="M80.722 94.879c-.859-3.984-4.35-9.809-5.861-15.182-1.77-6.286-2.384-12.292-2.207-19.145l.916-7.629.562-3.343 2.06-5.935c.056-.334.31-.349.468-.525.015-3.203 1.279-5.997 3.063-8.198l.8-1.714.236-1.507h-12.32c-.922 11.095-3.51 23.255-3.51 35.1-2.537-1.86-.99 1.176-2.707-7.82-1.102-5.77-4.278-23.551-6.065-27.28H35.974c-1.181 2.465-7.018 31.922-7.018 35.976h-.879c0-9.455-1.875-19.268-2.759-28.826-.687-7.405-.262-7.32-8.617-7.177-5.553.094-11.144.027-16.701.027l12.955 72.156c1.016 4.315.832 3.365 10.734 3.309 4.97-.03 9.948-.005 14.92-.005.04-1.892 5.649-28.188 7.607-32.756.06-.13.172-.4.29-.586.444 5.363 6.892 27.699 7.017 33.339 6.468 0 12.919.015 19.381.077 4.2.041 6.561 2.761 7.818-12.359v.002zm124.599 2.63c-2.022-3.598-.876-47.617-.876-55.278 2.813.062 4.386-.287 4.386 2.631V94c0 2.746-1.568 2.935-3.51 3.51zM180.754 22.05c1.596 4.377 5.896 7.133 10.353 17.707 14.858 35.24-8.954 60.821-10.353 64.773v2.631h23.691c1.416-4.276 2.519 1.527 12.268 1.527 5.11 0 10.071-1.021 12.734-4.603 4.615-6.202 2.197-23.261 2.197-32.9 0-14.332 3.525-33.924-4.894-38.978-2.237-1.34-4.021-1.411-7.354-1.443-11.203-.108-9.045 1.318-14.953 2.692V14.151h-23.691v7.9h.002z" fill="#000"/><path d="M461.388 20.781l5.542 1.753c-.851 3.213-2.27 5.598-4.248 7.162-1.981 1.556-4.487 2.337-7.528 2.337-3.768 0-6.863-1.326-9.291-3.974-2.422-2.651-3.635-6.272-3.635-10.871 0-4.858 1.222-8.635 3.657-11.328 2.435-2.69 5.643-4.035 9.615-4.035 3.47 0 6.288 1.06 8.453 3.173 1.294 1.25 2.256 3.044 2.904 5.388l-5.663 1.387c-.336-1.507-1.036-2.705-2.098-3.581-1.071-.876-2.364-1.31-3.881-1.31-2.104 0-3.814.775-5.12 2.33-1.313 1.55-1.966 4.063-1.966 7.544 0 3.681.648 6.313 1.934 7.876 1.293 1.571 2.97 2.352 5.034 2.352 1.524 0 2.838-.496 3.932-1.495 1.095-1 1.888-2.563 2.364-4.703l-.005-.005zm12.484 10.763V2.352h8.598l5.081 19.91 5.022-19.91h8.618v29.192h-5.307l-.02-22.982-5.589 22.982h-5.517l-5.562-22.982-.02 22.982h-5.307.003zm33.659-9.457l5.584-.572c.336 1.922 1.009 3.33 2.032 4.234 1.024.903 2.403 1.353 4.139 1.353 1.833 0 3.22-.4 4.15-1.203.93-.8 1.399-1.738 1.399-2.813 0-.692-.199-1.276-.586-1.767-.391-.482-1.075-.904-2.052-1.257-.668-.243-2.185-.665-4.561-1.277-3.056-.787-5.201-1.752-6.433-2.9-1.736-1.61-2.6-3.575-2.6-5.892 0-1.487.41-2.886 1.22-4.185.82-1.298 1.993-2.282 3.53-2.962 1.539-.68 3.385-1.019 5.564-1.019 3.545 0 6.215.808 8.005 2.433 1.794 1.625 2.732 3.785 2.825 6.497l-5.741.204c-.246-1.508-.766-2.59-1.566-3.248-.798-.658-1.998-.991-3.596-.991-1.65 0-2.943.353-3.873 1.057-.602.457-.904 1.06-.904 1.822 0 .692.285 1.283.852 1.774.719.631 2.467 1.284 5.245 1.964 2.779.672 4.831 1.38 6.159 2.101 1.333.727 2.376 1.713 3.127 2.97.753 1.257 1.126 2.805 1.126 4.646 0 1.672-.446 3.24-1.352 4.703-.906 1.46-2.177 2.548-3.829 3.255-1.65.712-3.709 1.065-6.171 1.065-3.583 0-6.335-.849-8.254-2.555-1.92-1.698-3.061-4.178-3.439-7.435v-.002z" fill="#000"/><path fill-rule="evenodd" clip-rule="evenodd" d="M133.665 1c33.691 0 61.002 27.312 61.002 61s-27.311 61-61.002 61c-33.689 0-61-27.312-61-61s27.311-61 61-61v0z" fill="url(#apaint0_radial)" stroke="#0086D1" stroke-width=".353" stroke-miterlimit="22.926" stroke-linecap="round" stroke-linejoin="round"/><path d="M167.723 70.198a.104.104 0 00-.016-.087.1.1 0 00-.08-.04l-12.427-.108-.001.1-.093-.036c-2.072 5.401-5.057 8.961-8.591 11.421-3.521 2.446-7.783 3.684-12.783 3.684-3.356 0-6.162-.46-8.688-1.463-2.526-1.002-4.777-2.548-7.02-4.727h0c-2.256-2.188-4.228-4.27-5.702-6.83-1.461-2.536-2.435-5.548-2.705-9.605h59.126a.1.1 0 00.1-.097c.052-1.5.077-2.638.077-3.39 0-12.437-3.442-21.057-10.295-27.923-6.85-6.864-14.651-10.289-25.462-10.289-5.587 0-10.138.876-14.17 2.629-4.033 1.753-7.54 4.381-11.043 7.879h0c-7 6.993-10.5 15.805-10.5 28.455 0 19.293 16.106 37.465 37.553 37.465 9.412 0 15.739-3.437 21.046-8.57l-.069-.072.069.072c5.475-5.298 9.456-10.776 11.674-18.468zM133.241 31.46c12.644 0 22.917 8.73 24.077 20.393h-47.955c.859-11.146 11.936-20.394 23.878-20.394z" fill="url(#apaint1_linear)" stroke="#fff" stroke-width=".2" stroke-miterlimit="22.926" stroke-linejoin="round"/><defs><radialGradient id="apaint0_radial" cx="0" cy="0" r="1" gradientUnits="userSpaceOnUse" gradientTransform="rotate(43.498 -9.912 196.288) scale(187.995 800.288)"><stop offset=".173" stop-color="#0189D2"/><stop offset=".376" stop-color="#C4C4C4" stop-opacity="0"/></radialGradient><linearGradient id="apaint1_linear" x1="133.185" y1="20.908" x2="133.185" y2="97.136" gradientUnits="userSpaceOnUse"><stop stop-color="#B7B7B7"/><stop offset=".5" stop-color="#F5F5F5"/><stop offset="1" stop-color="#C4C4C4"/></linearGradient></defs></svg></svg>